<svg width="187" height="28" viewBox="0 0 187 28" fill="none" xmlns="http://www.w3.org/2000/svg">
<path fill-rule="evenodd" clip-rule="evenodd" d="M18.5803 3.99367C22.0647 0.365502 27.7107 -1.05129 32.8441 0.835901C39.447 3.27003 42.699 10.2594 40.0965 16.4487C38.3679 20.5721 34.4804 23.2956 30.1247 23.9414L11.8997 27.7451C11.6872 27.76 11.5231 27.541 11.6101 27.3811L13.3009 24.5798C13.4144 24.3845 13.2086 24.1617 12.9409 24.2476L0.299527 27.9902C0.0883498 28.0518 -0.0969283 27.8085 0.056474 27.653L8.91065 18.7042C9.05674 18.5437 9.02088 18.3103 8.73068 18.2935L5.10879 18.0851C4.88566 18.054 4.80132 17.8238 4.98394 17.6402L18.5803 3.99367ZM34.8415 13.1703C34.8495 13.1672 34.8548 13.1628 34.8648 13.1585C35.0773 13.0838 35.1018 12.8486 34.9318 12.7465L30.964 10.5719L30.6273 6.2599C30.5901 6.08817 30.3889 6.01039 30.2395 6.11928L26.7989 8.98834L22.3681 7.96478H22.3661C22.1423 7.91252 21.9737 8.1023 22.0653 8.28087L23.8948 12.1946L9.43318 22.3375C9.40529 22.3567 9.38802 22.3879 9.38802 22.4214C9.38802 22.4806 9.43783 22.5272 9.50025 22.5272C9.51619 22.5272 9.53279 22.5241 9.5474 22.5166L26.2742 15.7911L26.2888 15.8004L29.2553 19.087C29.3888 19.2083 29.5867 19.1741 29.6531 19.0291L30.6452 14.78L30.7694 14.7271L34.8415 13.1703Z" fill="#FF2B85"/>
<path d="M77.5489 21.5999H81.7021L85.3273 5.78121L80.7982 7.34112L77.5489 21.5999Z" fill="#FF2B85"/>
<path fill-rule="evenodd" clip-rule="evenodd" d="M70.5201 17.5949C70.4975 17.6932 70.4763 17.8736 70.4763 17.9713C70.4763 18.6066 70.9405 18.8237 72.1703 18.8237C73.2694 18.8237 74.8346 18.5661 75.7457 18.2693V21.1844C74.5823 21.5808 72.76 21.798 71.3004 21.798C67.8717 21.798 66.2215 20.925 66.2215 18.0117C66.2215 15.1526 67.6386 10.6932 73.1014 10.6932C76.5699 10.6932 77.6065 12.1629 77.6065 13.7091C77.6065 15.7114 75.767 17.4163 70.5201 17.5949ZM72.7829 13.4323C71.7888 13.4323 71.217 14.2032 70.9846 15.098C72.9509 15.098 73.5459 14.5224 73.5459 14.0446C73.5459 13.7092 73.2258 13.4323 72.7829 13.4323Z" fill="#FF2B85"/>
<path d="M86.9187 8.1603C86.9187 9.33069 87.8298 10.1831 89.2456 10.1831C90.6854 10.1831 91.8076 9.33069 91.8076 7.78385C91.8076 6.63337 90.9178 5.78092 89.4781 5.78092C88.0622 5.78092 86.9187 6.63337 86.9187 8.1603Z" fill="#FF2B85"/>
<path d="M86.3317 11.0524H90.6064L88.4448 21.4423H84.1276L85.6503 14.1461L86.3317 11.0524Z" fill="#FF2B85"/>
<path d="M97.7355 21.4423C99.8087 17.9522 101.439 14.5425 102.921 11.0524H98.5636C98.0522 12.5607 97.3749 14.4193 96.6351 16.1266C96.5292 16.3686 96.4175 16.604 96.307 16.8372C96.218 17.0248 96.1295 17.2115 96.0454 17.3985H96.0208L96.0041 17.2269C95.9687 16.8652 95.9334 16.5038 95.9139 16.1266C95.8103 14.5033 95.7877 12.7573 95.8747 11.0524H91.5562C91.4705 14.68 91.7674 18.1495 92.4441 21.4423H97.7355Z" fill="#FF2B85"/>
<path fill-rule="evenodd" clip-rule="evenodd" d="M106.437 17.5955C106.417 17.6938 106.392 17.8743 106.392 17.9719C106.392 18.6072 106.86 18.8244 108.085 18.8244C109.187 18.8244 110.753 18.5668 111.663 18.27V21.1851C110.498 21.5814 108.678 21.7986 107.219 21.7986C103.789 21.7986 102.139 20.9256 102.139 18.0124C102.139 15.1533 103.556 10.6938 109.018 10.6938C112.488 10.6938 113.524 12.1635 113.524 13.7097C113.524 15.712 111.685 17.4169 106.437 17.5955ZM108.701 13.433C107.708 13.433 107.134 14.2039 106.898 15.0987C108.87 15.0987 109.462 14.5231 109.462 14.0453C109.462 13.7099 109.146 13.433 108.701 13.433Z" fill="#FF2B85"/>
<path d="M120.785 14.5991C121.122 14.5991 121.588 14.6594 121.823 14.7192L123.005 10.773C122.859 10.7326 122.562 10.6934 122.012 10.6934C120.807 10.6934 120.022 11.2889 119.029 12.4375L118.924 11.0524H115.685L113.522 21.4423H117.845L118.729 17.1384C119.069 15.4926 119.831 14.5991 120.785 14.5991Z" fill="#FF2B85"/>
<path d="M135.32 11.0524C133.414 15.6923 131.722 19.0828 130.028 21.4242C127.574 24.8558 125.414 25.6485 123.19 25.6485C122.534 25.6485 121.837 25.4873 121.497 25.3293L122.176 22.3358H123.658C124.399 22.3358 124.714 22.0564 125.203 21.4423C124.377 18.6473 123.974 14.741 124.016 11.0524H128.357C128.268 12.7362 128.291 14.4834 128.399 16.0688C128.42 16.523 128.46 16.9604 128.501 17.3985H128.525C128.596 17.2412 128.67 17.0844 128.745 16.9259C128.87 16.6619 128.997 16.3924 129.117 16.108C129.837 14.4616 130.537 12.5775 130.999 11.0524H135.32Z" fill="#FF2B85"/>
<path d="M147.364 21.4426H151.917L154.792 7.60007H150.244L149.207 12.5393H145.355L146.392 7.60007H141.839L138.962 21.4426H143.51L144.591 16.206H148.444L147.364 21.4426Z" fill="#FF2B85"/>
<path fill-rule="evenodd" clip-rule="evenodd" d="M158.623 17.5949C158.601 17.6932 158.582 17.8736 158.582 17.9713C158.582 18.6066 159.048 18.8237 160.273 18.8237C161.375 18.8237 162.942 18.5661 163.852 18.2693V21.1844C162.688 21.5808 160.867 21.798 159.406 21.798C155.976 21.798 154.326 20.925 154.326 18.0117C154.326 15.1526 155.745 10.6932 161.205 10.6932C164.677 10.6932 165.716 12.1629 165.716 13.7091C165.716 15.7114 163.87 17.4163 158.623 17.5949ZM160.887 13.4323C159.892 13.4323 159.322 14.2032 159.089 15.098C161.058 15.098 161.652 14.5224 161.652 14.0446C161.652 13.7092 161.332 13.4323 160.887 13.4323Z" fill="#FF2B85"/>
<path d="M172.973 14.5991C173.314 14.5991 173.776 14.6594 174.008 14.7192L175.196 10.773C175.046 10.7326 174.751 10.6934 174.198 10.6934C172.992 10.6934 172.211 11.2889 171.216 12.4375L171.109 11.0524H167.872L165.715 21.4423H170.03L170.92 17.1384C171.258 15.4926 172.021 14.5991 172.973 14.5991Z" fill="#FF2B85"/>
<path fill-rule="evenodd" clip-rule="evenodd" d="M179.49 21.7977C176.126 21.7977 174.476 20.4487 174.476 17.7526C174.476 14.7579 176.064 10.6929 181.652 10.6929C184.995 10.6929 186.667 12.0817 186.667 14.7404C186.667 17.7943 185.078 21.7977 179.49 21.7977ZM181.102 13.8867C179.366 13.8867 178.9 16.365 178.9 17.477C178.9 18.3686 179.302 18.6256 180.088 18.6256C181.799 18.6256 182.243 16.146 182.243 15.0186C182.243 14.1456 181.863 13.8867 181.102 13.8867Z" fill="#FF2B85"/>
<path fill-rule="evenodd" clip-rule="evenodd" d="M63.8642 8.52332L60.9868 11.1105L65.1732 9.68376C65.6964 10.4167 65.9667 11.36 65.9667 12.5391C65.9667 17.0801 63.3024 21.4431 56.6377 21.4431H50.9014L53.7775 7.60057H59.2794C61.2013 7.60057 62.742 7.89052 63.8642 8.52332ZM56.1058 18.15H56.9525C59.6374 18.15 61.2697 15.9703 61.2697 13.212C61.2697 11.8475 60.6136 10.8519 58.816 10.8519H57.6286L56.1058 18.15Z" fill="#FF2B85"/>
</svg>
